<?xml version="1.0" standalone="no"?>
<!DOCTYPE svg PUBLIC "-//W3C//DTD SVG 20010904//EN"
 "http://www.w3.org/TR/2001/REC-SVG-20010904/DTD/svg10.dtd">
<svg version="1.0" xmlns="http://www.w3.org/2000/svg"
 width="752.000000pt" height="752.000000pt" viewBox="0 0 752.000000 752.000000"
 preserveAspectRatio="xMidYMid meet">

<g transform="translate(0.000000,752.000000) scale(0.100000,-0.100000)"
fill="#000000" stroke="none">
<path d="M4358 5145 c-20 -7 -47 -20 -60 -28 -12 -9 -558 -313 -1213 -677
-654 -364 -1205 -673 -1224 -687 -66 -50 -66 -53 -66 -498 0 -374 1 -403 19
-443 15 -34 142 -157 599 -580 318 -295 595 -546 615 -556 22 -11 57 -19 87
-19 53 0 90 16 235 98 41 24 595 332 1230 685 635 353 1163 649 1172 657 10 9
24 34 33 57 14 36 15 94 13 426 -3 366 -4 387 -24 430 -17 37 -132 148 -593
575 -400 371 -585 537 -619 552 -54 26 -145 30 -204 8z m157 -104 c51 -23
1135 -1027 1135 -1051 0 -12 -114 -80 -377 -227 -1689 -941 -2062 -1147 -2098
-1160 -59 -21 -96 -9 -177 56 -60 48 -808 727 -1010 917 -61 57 -70 81 -40
106 9 8 199 117 422 240 223 124 767 427 1210 673 443 246 816 451 830 456 40
12 62 10 105 -10z m1175 -1233 l-1 -63 -1267 -705 c-1002 -557 -1276 -705
-1309 -708 -38 -4 -46 0 -105 54 -34 32 -298 276 -585 542 l-523 485 0 50 0
51 38 -36 c64 -61 875 -800 943 -860 36 -32 92 -73 124 -93 78 -47 151 -49
240 -7 59 28 513 280 1785 990 355 198 648 361 653 361 4 1 7 -27 7 -61z m0
-176 l0 -69 -1237 -689 c-681 -379 -1259 -699 -1285 -712 -33 -17 -55 -22 -75
-18 -20 5 -197 162 -554 493 -288 267 -550 510 -582 540 l-58 55 3 59 3 59
115 -107 c63 -58 314 -291 558 -517 244 -226 456 -417 470 -425 69 -37 39 -52
1092 534 542 302 1111 619 1265 706 154 86 281 158 283 158 1 1 2 -30 2 -67z
m-2 -184 l-3 -62 -285 -159 c-2164 -1205 -2259 -1257 -2294 -1257 -33 0 -55
17 -249 197 -116 108 -380 352 -584 542 l-373 345 0 59 0 59 111 -103 c772
-718 1019 -943 1046 -955 18 -8 45 -14 61 -14 27 0 510 266 2082 1143 261 146
479 266 483 266 4 1 7 -27 5 -61z m-10 -273 c-7 -7 -179 -104 -383 -217 -203
-113 -771 -428 -1262 -702 -635 -353 -901 -496 -923 -496 -34 0 -22 -10 -540
470 -157 146 -367 341 -467 433 -99 92 -186 180 -193 196 -6 15 -10 52 -8 81
l3 52 554 -513 c304 -283 565 -522 580 -531 15 -11 45 -18 71 -18 49 0 -69
-64 1920 1043 l655 364 3 -75 c2 -52 -1 -79 -10 -87z"/>
<path d="M4314 4931 c-23 -11 -511 -281 -1085 -601 -659 -368 -1056 -595
-1076 -616 -35 -36 -42 -73 -22 -118 10 -22 792 -745 894 -827 47 -37 111 -68
142 -69 48 0 129 38 408 195 297 166 877 491 1480 828 187 104 351 199 364
211 62 56 47 98 -75 217 -247 240 -823 764 -859 780 -51 24 -119 24 -171 0z
m163 -73 c18 -13 126 -111 241 -218 l210 -195 -15 -28 c-26 -51 9 -81 41 -35
15 21 15 21 68 -25 29 -25 96 -87 148 -136 l95 -90 -65 18 c-36 10 -91 26
-122 35 -32 10 -62 15 -68 11 -18 -11 -11 -35 13 -45 50 -21 298 -90 307 -85
4 3 20 -9 34 -27 25 -32 25 -34 7 -51 -30 -30 -854 -487 -878 -487 -12 0 -27
-8 -32 -18 -5 -10 -126 -83 -267 -162 l-257 -143 -69 18 c-49 13 -72 15 -80 7
-18 -18 -1 -41 36 -48 20 -3 36 -10 36 -14 0 -7 -321 -190 -334 -190 -3 0 7
27 24 60 35 69 37 90 10 90 -14 0 -32 -25 -72 -102 l-53 -103 -95 -53 c-128
-70 -158 -78 -213 -54 -23 11 -82 55 -131 98 -49 43 -107 95 -129 115 l-41 35
57 118 c31 65 54 122 51 127 -3 5 -14 9 -24 9 -15 0 -32 -26 -69 -106 -36 -76
-54 -103 -63 -98 -7 5 -142 127 -300 272 -216 198 -288 270 -288 287 0 18 19
33 98 78 83 47 99 54 112 42 20 -18 44 -4 59 32 9 23 59 55 246 160 l235 132
77 -23 c84 -25 103 -24 103 5 0 14 -14 22 -55 34 -30 9 -55 18 -55 20 0 4 378
215 385 215 2 0 -14 -37 -35 -82 -35 -71 -38 -84 -26 -96 8 -8 19 -11 25 -7 7
3 38 59 70 123 l59 117 121 67 121 68 151 -46 c137 -41 154 -44 168 -30 23 24
8 32 -123 71 -65 19 -121 36 -123 39 -2 2 40 29 94 59 54 30 179 100 278 156
154 86 187 101 225 101 31 0 55 -7 77 -22z"/>
<path d="M4391 4857 c-6 -7 -39 -74 -75 -149 -62 -131 -70 -169 -32 -155 20 8
159 285 152 303 -7 18 -30 18 -45 1z"/>
<path d="M4160 4450 c-25 -25 -26 -52 -2 -73 26 -24 59 -21 87 8 30 29 31 46
7 68 -25 23 -68 21 -92 -3z"/>
<path d="M4360 4375 c-8 -10 -9 -19 -4 -25 15 -14 315 -99 330 -93 19 7 18 30
-3 41 -16 8 -295 92 -306 92 -2 0 -10 -7 -17 -15z"/>
<path d="M4038 4135 c-38 -80 -67 -152 -64 -160 14 -38 39 -9 106 125 75 149
83 180 49 180 -16 0 -34 -28 -91 -145z"/>
<path d="M4812 4264 c-17 -12 -22 -24 -20 -47 6 -66 109 -59 116 8 6 50 -49
72 -96 39z"/>
<path d="M4751 4076 c-6 -7 -40 -73 -75 -147 -53 -111 -62 -136 -51 -148 7 -7
18 -10 24 -6 19 11 153 286 147 301 -7 18 -30 18 -45 0z"/>
<path d="M3232 4054 c-41 -29 -16 -94 37 -94 24 0 71 41 71 63 0 21 -34 47
-61 47 -14 0 -35 -7 -47 -16z"/>
<path d="M3423 3974 c-3 -8 -2 -19 3 -23 5 -5 79 -29 164 -54 136 -41 157 -45
170 -32 23 24 4 34 -156 81 -165 49 -172 50 -181 28z"/>
<path d="M3110 3740 c-38 -77 -70 -146 -70 -154 0 -19 14 -28 33 -20 15 5 147
274 147 299 0 8 -9 15 -20 15 -16 0 -35 -30 -90 -140z"/>
<path d="M3871 3854 c-12 -15 -21 -31 -21 -35 0 -18 41 -49 65 -49 49 0 85 66
53 98 -22 22 -75 14 -97 -14z"/>
<path d="M4073 3784 c-3 -8 -2 -19 3 -24 5 -5 72 -27 149 -50 77 -22 145 -43
152 -45 18 -6 50 22 38 34 -10 10 -302 101 -325 101 -6 0 -13 -7 -17 -16z"/>
<path d="M3822 3678 c-6 -7 -40 -73 -76 -147 -58 -117 -65 -137 -52 -149 8 -8
20 -11 26 -7 19 11 152 293 145 305 -9 14 -30 13 -43 -2z"/>
<path d="M4520 3670 c-25 -25 -26 -52 -2 -73 26 -24 59 -21 87 8 30 29 31 46
7 68 -25 23 -68 21 -92 -3z"/>
<path d="M2297 3652 c-24 -26 -21 -59 7 -77 30 -20 72 -11 93 21 14 22 14 26
-1 49 -20 31 -74 34 -99 7z"/>
<path d="M2493 3574 c-3 -8 -2 -19 3 -23 13 -11 287 -91 313 -91 20 0 40 24
29 36 -7 7 -305 94 -323 94 -9 0 -18 -7 -22 -16z"/>
<path d="M2948 3468 c-28 -22 -31 -55 -9 -77 27 -27 51 -26 85 0 27 22 34 57
14 77 -16 16 -70 15 -90 0z"/>
<path d="M3143 3384 c-3 -8 -2 -19 3 -24 12 -11 283 -90 311 -90 27 0 38 27
15 39 -21 10 -295 91 -311 91 -6 0 -14 -7 -18 -16z"/>
<path d="M3587 3272 c-25 -27 -21 -59 9 -78 33 -22 72 -10 93 28 14 24 14 28
-3 47 -24 26 -77 28 -99 3z"/>
</g>
</svg>
